<svg xmlns="http://www.w3.org/2000/svg" xmlns:xlink="http://www.w3.org/1999/xlink" xmlns:lucid="lucid" width="1062" height="1262"><g transform="translate(201 481)" lucid:page-tab-id="0_0"><path d="M7.04 140.33A8.43 8.43 0 0 0 15 146h99a6 6 0 0 1 6 6v162a6 6 0 0 1-6 6h-288a6 6 0 0 1-6-6V126a6 6 0 0 1 6-6H-6a8.43 8.43 0 0 1 7.96 5.67zM-180 146H9" stroke="#282c33" stroke-width="2" fill="#fff"/><use xlink:href="#a" transform="matrix(1,0,0,1,-168,154) translate(12.955555555555549 85.04444444444445)"/><path d="M407.04-339.67A8.43 8.43 0 0 0 415-334h99a6 6 0 0 1 6 6v142a6 6 0 0 1-6 6H226a6 6 0 0 1-6-6v-168a6 6 0 0 1 6-6h168a8.43 8.43 0 0 1 7.96 5.67zM220-334h189" stroke="#282c33" stroke-width="2" fill="#fff"/><use xlink:href="#b" transform="matrix(1,0,0,1,232,-326) translate(74.22222222222223 75.22222222222223)"/><path d="M407.04 500.33A8.43 8.43 0 0 0 415 506h99a6 6 0 0 1 6 6v162a6 6 0 0 1-6 6H226a6 6 0 0 1-6-6V486a6 6 0 0 1 6-6h168a8.43 8.43 0 0 1 7.96 5.67zM220 506h189" stroke="#282c33" stroke-width="2" fill="#fff"/><use xlink:href="#c" transform="matrix(1,0,0,1,232,514) translate(110.4320987654321 85.22222222222223)"/><path d="M407.04 260.33A8.43 8.43 0 0 0 415 266h99a6 6 0 0 1 6 6v142a6 6 0 0 1-6 6H226a6 6 0 0 1-6-6V246a6 6 0 0 1 6-6h168a8.43 8.43 0 0 1 7.96 5.67zM220 266h189" stroke="#282c33" stroke-width="2" fill="#fff"/><use xlink:href="#d" transform="matrix(1,0,0,1,232,274) translate(107.86172839506173 75.04444444444445)"/><path d="M407.04 20.33A8.43 8.43 0 0 0 415 26h99a6 6 0 0 1 6 6v142a6 6 0 0 1-6 6H226a6 6 0 0 1-6-6V6a6 6 0 0 1 6-6h168a8.43 8.43 0 0 1 7.96 5.67zM220 26h189" stroke="#282c33" stroke-width="2" fill="#fff"/><use xlink:href="#e" transform="matrix(1,0,0,1,232,34) translate(96.94814814814816 75.04444444444445)"/><path d="M749.44-439.8A7.83 7.83 0 0 0 757-434h77a6 6 0 0 1 6 6v102a6 6 0 0 1-6 6H606a6 6 0 0 1-6-6v-128a6 6 0 0 1 6-6h132a7.83 7.83 0 0 1 7.56 5.8zM600-434h151" stroke="#282c33" stroke-width="2" fill="#fff"/><use xlink:href="#f" transform="matrix(1,0,0,1,612,-426) translate(76.11111111111111 55.22222222222222)"/><path d="M749.44-199.8A7.83 7.83 0 0 0 757-194h77a6 6 0 0 1 6 6v102a6 6 0 0 1-6 6H606a6 6 0 0 1-6-6v-128a6 6 0 0 1 6-6h132a7.83 7.83 0 0 1 7.56 5.8zM600-194h151" stroke="#282c33" stroke-width="2" fill="#fff"/><use xlink:href="#g" transform="matrix(1,0,0,1,612,-186) translate(76.9753086419753 55.22222222222222)"/><path d="M530-270h24a6 6 0 0 1 6 6v108a6 6 0 0 0 6 6h32" stroke="#5e5e5e" stroke-width="2" fill="none"/><path d="M522.96-270l12.92-7.64v15.28z" stroke="#5e5e5e" stroke-width="2" fill="#5e5e5e"/><path d="M599-149.03h-1.03v-1.94H599z" stroke="#5e5e5e" stroke-width=".05" fill="#5e5e5e"/><path d="M530-270h24a6 6 0 0 0 6-6v-108a6 6 0 0 1 6-6h32" stroke="#5e5e5e" stroke-width="2" fill="none"/><path d="M522.96-270l12.92-7.64v15.28z" stroke="#5e5e5e" stroke-width="2" fill="#5e5e5e"/><path d="M599-389.02h-1.03v-1.96H599z" stroke="#5e5e5e" stroke-width=".05" fill="#5e5e5e"/><path d="M218-270h-42a6 6 0 0 0-6 6v478a6 6 0 0 1-6 6h-24.5" stroke="#5e5e5e" stroke-width="2" fill="none"/><path d="M219-269.02h-1.03v-1.96H219z" stroke="#5e5e5e" stroke-width=".05" fill="#5e5e5e"/><path d="M124.24 220l14.26-4.63v9.26z" stroke="#5e5e5e" stroke-width="2" fill="#5e5e5e"/><path d="M218 90h-42a6 6 0 0 0-6 6v118a6 6 0 0 1-6 6h-24.5" stroke="#5e5e5e" stroke-width="2" fill="none"/><path d="M219 90.97h-1.03v-1.94H219z" stroke="#5e5e5e" stroke-width=".05" fill="#5e5e5e"/><path d="M124.24 220l14.26-4.63v9.26z" stroke="#5e5e5e" stroke-width="2" fill="#5e5e5e"/><path d="M218 330h-42a6 6 0 0 1-6-6v-98a6 6 0 0 0-6-6h-24.5" stroke="#5e5e5e" stroke-width="2" fill="none"/><path d="M219 330.98h-1.03v-1.96H219z" stroke="#5e5e5e" stroke-width=".05" fill="#5e5e5e"/><path d="M124.24 220l14.26-4.63v9.26z" stroke="#5e5e5e" stroke-width="2" fill="#5e5e5e"/><path d="M218 580h-42a6 6 0 0 1-6-6V226a6 6 0 0 0-6-6h-24.5" stroke="#5e5e5e" stroke-width="2" fill="none"/><path d="M219 580.98h-1.03V579H219z" stroke="#5e5e5e" stroke-width=".05" fill="#5e5e5e"/><path d="M124.24 220l14.26-4.63v9.26z" stroke="#5e5e5e" stroke-width="2" fill="#5e5e5e"/><path d="M749.44 40.2A7.83 7.83 0 0 0 757 46h77a6 6 0 0 1 6 6v102a6 6 0 0 1-6 6H606a6 6 0 0 1-6-6V26a6 6 0 0 1 6-6h132a7.83 7.83 0 0 1 7.56 5.8zM600 46h151" stroke="#282c33" stroke-width="2" fill="#fff"/><use xlink:href="#h" transform="matrix(1,0,0,1,612,54) translate(33.030864197530846 55.22222222222222)"/><path d="M598 90h-58.5" stroke="#5e5e5e" stroke-width="2" fill="none"/><path d="M599 90.97h-1.03v-1.94H599z" stroke="#5e5e5e" stroke-width=".05" fill="#5e5e5e"/><path d="M524.24 90l14.26-4.64v9.28z" stroke="#5e5e5e" stroke-width="2" fill="#5e5e5e"/><path d="M749.44 440.2A7.83 7.83 0 0 0 757 446h77a6 6 0 0 1 6 6v102a6 6 0 0 1-6 6H606a6 6 0 0 1-6-6V426a6 6 0 0 1 6-6h132a7.83 7.83 0 0 1 7.56 5.8zM600 446h151" stroke="#282c33" stroke-width="2" fill="#fff"/><use xlink:href="#i" transform="matrix(1,0,0,1,612,454) translate(66.56172839506172 55.22222222222222)"/><path d="M749.44 640.2A7.83 7.83 0 0 0 757 646h77a6 6 0 0 1 6 6v102a6 6 0 0 1-6 6H606a6 6 0 0 1-6-6V626a6 6 0 0 1 6-6h132a7.83 7.83 0 0 1 7.56 5.8zM600 646h151" stroke="#282c33" stroke-width="2" fill="#fff"/><use xlink:href="#j" transform="matrix(1,0,0,1,612,654) translate(39.81481481481481 55.22222222222222)"/><path d="M598 490h-32a6 6 0 0 0-6 6v78a6 6 0 0 1-6 6h-14.5" stroke="#5e5e5e" stroke-width="2" fill="none"/><path d="M599 490.98h-1.03v-1.96H599z" stroke="#5e5e5e" stroke-width=".05" fill="#5e5e5e"/><path d="M524.24 580l14.26-4.63v9.26z" stroke="#5e5e5e" stroke-width="2" fill="#5e5e5e"/><path d="M598 690h-32a6 6 0 0 1-6-6v-98a6 6 0 0 0-6-6h-14.5" stroke="#5e5e5e" stroke-width="2" fill="none"/><path d="M599 690.98h-1.03V689H599z" stroke="#5e5e5e" stroke-width=".05" fill="#5e5e5e"/><path d="M524.24 580l14.26-4.63v9.26z" stroke="#5e5e5e" stroke-width="2" fill="#5e5e5e"/><defs><path fill="#282c33" d="M30-248c87 1 191-15 191 75 0 78-77 80-158 76V0H30v-248zm33 125c57 0 124 11 124-50 0-59-68-47-124-48v98" id="k"/><path fill="#282c33" d="M185-189c-5-48-123-54-124 2 14 75 158 14 163 119 3 78-121 87-175 55-17-10-28-26-33-46l33-7c5 56 141 63 141-1 0-78-155-14-162-118-5-82 145-84 179-34 5 7 8 16 11 25" id="l"/><path fill="#282c33" d="M33 0v-38h34V0H33" id="m"/><path fill="#282c33" d="M101-251c82-7 93 87 43 132L82-64C71-53 59-42 53-27h129V0H18c2-99 128-94 128-182 0-28-16-43-45-43s-46 15-49 41l-32-3c6-41 34-60 81-64" id="n"/><path fill="#282c33" d="M85-194c31 0 48 13 60 33l-1-100h32l1 261h-30c-2-10 0-23-3-31C134-8 116 4 85 4 32 4 16-35 15-94c0-66 23-100 70-100zm9 24c-40 0-46 34-46 75 0 40 6 74 45 74 42 0 51-32 51-76 0-42-9-74-50-73" id="o"/><path fill="#282c33" d="M84 4C-5 8 30-112 23-190h32v120c0 31 7 50 39 49 72-2 45-101 50-169h31l1 190h-30c-1-10 1-25-2-33-11 22-28 36-60 37" id="p"/><path fill="#282c33" d="M96-169c-40 0-48 33-48 73s9 75 48 75c24 0 41-14 43-38l32 2c-6 37-31 61-74 61-59 0-76-41-82-99-10-93 101-131 147-64 4 7 5 14 7 22l-32 3c-4-21-16-35-41-35" id="q"/><path fill="#282c33" d="M143 0L79-87 56-68V0H24v-261h32v163l83-92h37l-77 82L181 0h-38" id="r"/><path fill="#282c33" d="M177-190C167-65 218 103 67 71c-23-6-38-20-44-43l32-5c15 47 100 32 89-28v-30C133-14 115 1 83 1 29 1 15-40 15-95c0-56 16-97 71-98 29-1 48 16 59 35 1-10 0-23 2-32h30zM94-22c36 0 50-32 50-73 0-42-14-75-50-75-39 0-46 34-46 75s6 73 46 73" id="s"/><path fill="#282c33" d="M141-36C126-15 110 5 73 4 37 3 15-17 15-53c-1-64 63-63 125-63 3-35-9-54-41-54-24 1-41 7-42 31l-33-3c5-37 33-52 76-52 45 0 72 20 72 64v82c-1 20 7 32 28 27v20c-31 9-61-2-59-35zM48-53c0 20 12 33 32 33 41-3 63-29 60-74-43 2-92-5-92 41" id="t"/><path fill="#282c33" d="M210-169c-67 3-38 105-44 169h-31v-121c0-29-5-50-35-48C34-165 62-65 56 0H25l-1-190h30c1 10-1 24 2 32 10-44 99-50 107 0 11-21 27-35 58-36 85-2 47 119 55 194h-31v-121c0-29-5-49-35-48" id="u"/><path fill="#282c33" d="M100-194c63 0 86 42 84 106H49c0 40 14 67 53 68 26 1 43-12 49-29l28 8c-11 28-37 45-77 45C44 4 14-33 15-96c1-61 26-98 85-98zm52 81c6-60-76-77-97-28-3 7-6 17-6 28h103" id="v"/><g id="a"><use transform="matrix(0.0839506172839506,0,0,0.0839506172839506,0,0)" xlink:href="#k"/><use transform="matrix(0.0839506172839506,0,0,0.0839506172839506,20.148148148148145,0)" xlink:href="#k"/><use transform="matrix(0.0839506172839506,0,0,0.0839506172839506,40.29629629629629,0)" xlink:href="#l"/><use transform="matrix(0.0839506172839506,0,0,0.0839506172839506,60.444444444444436,0)" xlink:href="#m"/><use transform="matrix(0.0839506172839506,0,0,0.0839506172839506,68.83950617283949,0)" xlink:href="#n"/><use transform="matrix(0.0839506172839506,0,0,0.0839506172839506,85.62962962962962,0)" xlink:href="#n"/><use transform="matrix(0.0839506172839506,0,0,0.0839506172839506,102.41975308641973,0)" xlink:href="#m"/><use transform="matrix(0.0839506172839506,0,0,0.0839506172839506,110.81481481481482,0)" xlink:href="#o"/><use transform="matrix(0.0839506172839506,0,0,0.0839506172839506,127.60493827160494,0)" xlink:href="#p"/><use transform="matrix(0.0839506172839506,0,0,0.0839506172839506,144.39506172839506,0)" xlink:href="#q"/><use transform="matrix(0.0839506172839506,0,0,0.0839506172839506,159.50617283950618,0)" xlink:href="#r"/><use transform="matrix(0.0839506172839506,0,0,0.0839506172839506,174.6172839506173,0)" xlink:href="#s"/><use transform="matrix(0.0839506172839506,0,0,0.0839506172839506,191.40740740740742,0)" xlink:href="#t"/><use transform="matrix(0.0839506172839506,0,0,0.0839506172839506,208.19753086419755,0)" xlink:href="#u"/><use transform="matrix(0.0839506172839506,0,0,0.0839506172839506,233.29876543209878,0)" xlink:href="#v"/></g><path fill="#282c33" d="M100-194c62-1 85 37 85 99 1 63-27 99-86 99S16-35 15-95c0-66 28-99 85-99zM99-20c44 1 53-31 53-75 0-43-8-75-51-75s-53 32-53 75 10 74 51 75" id="w"/><path fill="#282c33" d="M117-194c89-4 53 116 60 194h-32v-121c0-31-8-49-39-48C34-167 62-67 57 0H25l-1-190h30c1 10-1 24 2 32 11-22 29-35 61-36" id="x"/><path fill="#282c33" d="M59-47c-2 24 18 29 38 22v24C64 9 27 4 27-40v-127H5v-23h24l9-43h21v43h35v23H59v120" id="y"/><path fill="#282c33" d="M114-163C36-179 61-72 57 0H25l-1-190h30c1 12-1 29 2 39 6-27 23-49 58-41v29" id="z"/><path fill="#282c33" d="M24 0v-261h32V0H24" id="A"/><g id="b"><use transform="matrix(0.08641975308641976,0,0,0.08641975308641976,0,0)" xlink:href="#q"/><use transform="matrix(0.08641975308641976,0,0,0.08641975308641976,15.555555555555557,0)" xlink:href="#w"/><use transform="matrix(0.08641975308641976,0,0,0.08641975308641976,32.839506172839506,0)" xlink:href="#x"/><use transform="matrix(0.08641975308641976,0,0,0.08641975308641976,50.123456790123456,0)" xlink:href="#y"/><use transform="matrix(0.08641975308641976,0,0,0.08641975308641976,58.76543209876543,0)" xlink:href="#z"/><use transform="matrix(0.08641975308641976,0,0,0.08641975308641976,69.04938271604938,0)" xlink:href="#w"/><use transform="matrix(0.08641975308641976,0,0,0.08641975308641976,86.33333333333333,0)" xlink:href="#A"/><use transform="matrix(0.08641975308641976,0,0,0.08641975308641976,93.16049382716048,0)" xlink:href="#A"/><use transform="matrix(0.08641975308641976,0,0,0.08641975308641976,99.98765432098766,0)" xlink:href="#v"/><use transform="matrix(0.08641975308641976,0,0,0.08641975308641976,117.27160493827162,0)" xlink:href="#z"/></g><path fill="#282c33" d="M24-231v-30h32v30H24zM24 0v-190h32V0H24" id="B"/><path fill="#282c33" d="M135-143c-3-34-86-38-87 0 15 53 115 12 119 90S17 21 10-45l28-5c4 36 97 45 98 0-10-56-113-15-118-90-4-57 82-63 122-42 12 7 21 19 24 35" id="C"/><g id="c"><use transform="matrix(0.08641975308641976,0,0,0.08641975308641976,0,0)" xlink:href="#p"/><use transform="matrix(0.08641975308641976,0,0,0.08641975308641976,17.283950617283953,0)" xlink:href="#y"/><use transform="matrix(0.08641975308641976,0,0,0.08641975308641976,25.925925925925927,0)" xlink:href="#B"/><use transform="matrix(0.08641975308641976,0,0,0.08641975308641976,32.75308641975309,0)" xlink:href="#A"/><use transform="matrix(0.08641975308641976,0,0,0.08641975308641976,39.580246913580254,0)" xlink:href="#C"/></g><path d="M108 0H70L1-190h34L89-25l56-165h34" id="D"/><path d="M24-231v-30h32v30H24zM24 0v-190h32V0H24" id="E"/><path d="M100-194c63 0 86 42 84 106H49c0 40 14 67 53 68 26 1 43-12 49-29l28 8c-11 28-37 45-77 45C44 4 14-33 15-96c1-61 26-98 85-98zm52 81c6-60-76-77-97-28-3 7-6 17-6 28h103" id="F"/><path d="M206 0h-36l-40-164L89 0H53L-1-190h32L70-26l43-164h34l41 164 42-164h31" id="G"/><g id="d"><use transform="matrix(0.0839506172839506,0,0,0.0839506172839506,0,0)" xlink:href="#D"/><use transform="matrix(0.0839506172839506,0,0,0.0839506172839506,15.111111111111109,0)" xlink:href="#E"/><use transform="matrix(0.0839506172839506,0,0,0.0839506172839506,21.743209876543208,0)" xlink:href="#F"/><use transform="matrix(0.0839506172839506,0,0,0.0839506172839506,38.533333333333324,0)" xlink:href="#G"/></g><g id="e"><use transform="matrix(0.0839506172839506,0,0,0.0839506172839506,0,0)" xlink:href="#u"/><use transform="matrix(0.0839506172839506,0,0,0.0839506172839506,25.10123456790123,0)" xlink:href="#w"/><use transform="matrix(0.0839506172839506,0,0,0.0839506172839506,41.89135802469135,0)" xlink:href="#o"/><use transform="matrix(0.0839506172839506,0,0,0.0839506172839506,58.68148148148147,0)" xlink:href="#v"/><use transform="matrix(0.0839506172839506,0,0,0.0839506172839506,75.47160493827158,0)" xlink:href="#A"/></g><g id="f"><use transform="matrix(0.08641975308641976,0,0,0.08641975308641976,0,0)" xlink:href="#A"/><use transform="matrix(0.08641975308641976,0,0,0.08641975308641976,6.8271604938271615,0)" xlink:href="#w"/><use transform="matrix(0.08641975308641976,0,0,0.08641975308641976,24.111111111111114,0)" xlink:href="#s"/><use transform="matrix(0.08641975308641976,0,0,0.08641975308641976,41.39506172839506,0)" xlink:href="#B"/><use transform="matrix(0.08641975308641976,0,0,0.08641975308641976,48.22222222222223,0)" xlink:href="#q"/></g><path fill="#282c33" d="M108 0H70L1-190h34L89-25l56-165h34" id="H"/><path fill="#282c33" d="M206 0h-36l-40-164L89 0H53L-1-190h32L70-26l43-164h34l41 164 42-164h31" id="I"/><g id="g"><use transform="matrix(0.08641975308641976,0,0,0.08641975308641976,0,0)" xlink:href="#H"/><use transform="matrix(0.08641975308641976,0,0,0.08641975308641976,15.555555555555557,0)" xlink:href="#B"/><use transform="matrix(0.08641975308641976,0,0,0.08641975308641976,22.38271604938272,0)" xlink:href="#v"/><use transform="matrix(0.08641975308641976,0,0,0.08641975308641976,39.66666666666667,0)" xlink:href="#I"/></g><path fill="#282c33" d="M115-194c55 1 70 41 70 98S169 2 115 4C84 4 66-9 55-30l1 105H24l-1-265h31l2 30c10-21 28-34 59-34zm-8 174c40 0 45-34 45-75s-6-73-45-74c-42 0-51 32-51 76 0 43 10 73 51 73" id="J"/><path fill="#282c33" d="M212-179c-10-28-35-45-73-45-59 0-87 40-87 99 0 60 29 101 89 101 43 0 62-24 78-52l27 14C228-24 195 4 139 4 59 4 22-46 18-125c-6-104 99-153 187-111 19 9 31 26 39 46" id="K"/><g id="h"><use transform="matrix(0.08641975308641976,0,0,0.08641975308641976,0,0)" xlink:href="#C"/><use transform="matrix(0.08641975308641976,0,0,0.08641975308641976,15.555555555555557,0)" xlink:href="#J"/><use transform="matrix(0.08641975308641976,0,0,0.08641975308641976,32.839506172839506,0)" xlink:href="#v"/><use transform="matrix(0.08641975308641976,0,0,0.08641975308641976,50.123456790123456,0)" xlink:href="#q"/><use transform="matrix(0.08641975308641976,0,0,0.08641975308641976,65.67901234567901,0)" xlink:href="#B"/><use transform="matrix(0.08641975308641976,0,0,0.08641975308641976,72.50617283950618,0)" xlink:href="#t"/><use transform="matrix(0.08641975308641976,0,0,0.08641975308641976,89.79012345679013,0)" xlink:href="#A"/><use transform="matrix(0.08641975308641976,0,0,0.08641975308641976,96.61728395061729,0)" xlink:href="#K"/><use transform="matrix(0.08641975308641976,0,0,0.08641975308641976,119.00000000000001,0)" xlink:href="#v"/><use transform="matrix(0.08641975308641976,0,0,0.08641975308641976,136.28395061728398,0)" xlink:href="#A"/><use transform="matrix(0.08641975308641976,0,0,0.08641975308641976,143.11111111111114,0)" xlink:href="#A"/></g><path fill="#282c33" d="M101-234c-31-9-42 10-38 44h38v23H63V0H32v-167H5v-23h27c-7-52 17-82 69-68v24" id="L"/><g id="i"><use transform="matrix(0.08641975308641976,0,0,0.08641975308641976,0,0)" xlink:href="#q"/><use transform="matrix(0.08641975308641976,0,0,0.08641975308641976,15.555555555555557,0)" xlink:href="#w"/><use transform="matrix(0.08641975308641976,0,0,0.08641975308641976,32.839506172839506,0)" xlink:href="#x"/><use transform="matrix(0.08641975308641976,0,0,0.08641975308641976,50.123456790123456,0)" xlink:href="#L"/><use transform="matrix(0.08641975308641976,0,0,0.08641975308641976,58.76543209876543,0)" xlink:href="#B"/><use transform="matrix(0.08641975308641976,0,0,0.08641975308641976,65.5925925925926,0)" xlink:href="#s"/></g><g id="j"><use transform="matrix(0.08641975308641976,0,0,0.08641975308641976,0,0)" xlink:href="#z"/><use transform="matrix(0.08641975308641976,0,0,0.08641975308641976,10.283950617283951,0)" xlink:href="#v"/><use transform="matrix(0.08641975308641976,0,0,0.08641975308641976,27.567901234567906,0)" xlink:href="#C"/><use transform="matrix(0.08641975308641976,0,0,0.08641975308641976,43.12345679012346,0)" xlink:href="#w"/><use transform="matrix(0.08641975308641976,0,0,0.08641975308641976,60.407407407407426,0)" xlink:href="#p"/><use transform="matrix(0.08641975308641976,0,0,0.08641975308641976,77.69135802469137,0)" xlink:href="#z"/><use transform="matrix(0.08641975308641976,0,0,0.08641975308641976,87.97530864197532,0)" xlink:href="#q"/><use transform="matrix(0.08641975308641976,0,0,0.08641975308641976,103.53086419753087,0)" xlink:href="#v"/><use transform="matrix(0.08641975308641976,0,0,0.08641975308641976,120.81481481481482,0)" xlink:href="#C"/></g></defs></g></svg>
