<svg xmlns="http://www.w3.org/2000/svg" version="1.1" xmlns:xlink="http://www.w3.org/1999/xlink" xmlns:svgjs="http://svgjs.dev/svgjs" width="1500" height="1313" viewBox="0 0 1500 1313"><g transform="matrix(1,0,0,1,0.26674236017436215,11.680622812910883)"><svg viewBox="0 0 282 247" data-background-color="#ffffff" preserveAspectRatio="xMidYMid meet" height="1313" width="1500" xmlns="http://www.w3.org/2000/svg" xmlns:xlink="http://www.w3.org/1999/xlink"><g id="tight-bounds" transform="matrix(1,0,0,1,-0.05014756371278395,-0.07477539979529979)"><svg viewBox="0 0 282.10029512742557 247.2" height="247.2" width="282.10029512742557"><g><svg viewBox="0 0 397.4975999999999 348.32082212326293" height="247.2" width="282.10029512742557"><g transform="matrix(1,0,0,1,0,209.7920729990861)"><svg viewBox="0 0 397.4975999999999 138.52874912417684" height="138.52874912417684" width="397.4975999999999"><g id="textblocktransform"><svg viewBox="0 0 397.4975999999999 138.52874912417684" height="138.52874912417684" width="397.4975999999999" id="textblock"><g><rect width="397.4975999999999" height="7.007920533018947" x="0" y="85.96487745347368" fill="#000000" opacity="1" stroke-width="0" stroke="transparent" fill-opacity="1" class="rect-qz-0" data-fill-palette-color="primary" rx="1%" id="qz-0" data-palette-color="#000000"></rect></g><g transform="matrix(1,0,0,1,0.9887999999999693,0)"><svg viewBox="0 0 395.52 77.70947368421052" height="77.70947368421052" width="395.52"><g transform="matrix(1,0,0,1,0,0)"><svg width="395.52" viewBox="1.7 -37.7 195.68 38.45" height="77.70947368421052" data-palette-color="#000000"><path d="M15.8-37.7L21.95-37.05 21.95 0 16.5 0 16.2-3.05Q13.85 0.75 10.15 0.75L10.15 0.75Q6.05 0.75 3.88-2.93 1.7-6.6 1.7-13.2L1.7-13.2Q1.7-17.4 2.83-20.58 3.95-23.75 5.95-25.45 7.95-27.15 10.55-27.15L10.55-27.15Q13.75-27.15 15.8-24.5L15.8-24.5 15.8-37.7ZM11.9-3.9Q13.05-3.9 13.98-4.7 14.9-5.5 15.8-7L15.8-7 15.8-19.85Q14.2-22.55 12.15-22.55L12.15-22.55Q8.1-22.55 8.1-13.25L8.1-13.25Q8.1-8.2 9.1-6.05 10.1-3.9 11.9-3.9L11.9-3.9ZM45.8-26.45L45.8 0 40.45 0 40.15-3.35Q38.9-1.3 37.35-0.28 35.8 0.75 33.75 0.75L33.75 0.75Q30.85 0.75 29.17-1.3 27.5-3.35 27.5-6.65L27.5-6.65 27.5-26.45 33.65-26.45 33.65-7Q33.65-3.9 35.75-3.9L35.75-3.9Q36.95-3.9 37.9-4.83 38.85-5.75 39.65-7.45L39.65-7.45 39.65-26.45 45.8-26.45ZM61-27.15Q63.15-27.15 64.9-26.43 66.65-25.7 68.25-24.15L68.25-24.15 65.59-20.65Q64.5-21.55 63.52-21.98 62.55-22.4 61.4-22.4L61.4-22.4Q59.15-22.4 58-20.28 56.85-18.15 56.85-13.1L56.85-13.1Q56.85-8.2 58.02-6.2 59.2-4.2 61.4-4.2L61.4-4.2Q62.5-4.2 63.4-4.6 64.3-5 65.5-5.85L65.5-5.85 68.25-2.3Q65.05 0.75 61.1 0.75L61.1 0.75Q56 0.75 53.17-2.73 50.35-6.2 50.35-13L50.35-13Q50.35-17.4 51.65-20.6 52.95-23.8 55.37-25.48 57.8-27.15 61-27.15L61-27.15ZM71.29-37.05L77.44-37.7 77.44 0 71.29 0 71.29-37.05ZM84.79-26.45L90.79-26.45 83.79-14.75 91.39 0 84.79 0 77.69-14.45 84.79-26.45ZM106.34-35.25Q109.19-35.25 111.44-34.23 113.69-33.2 115.69-31.25L115.69-31.25 112.49-27.95Q110.94-29.3 109.59-29.88 108.24-30.45 106.54-30.45L106.54-30.45Q103.24-30.45 101.37-27.5 99.49-24.55 99.49-17.3L99.49-17.3Q99.49-12.2 100.17-9.33 100.84-6.45 102.17-5.3 103.49-4.15 105.64-4.15L105.64-4.15Q107.89-4.15 109.74-5.4L109.74-5.4 109.74-14.75 105.84-14.75 105.19-19.5 115.79-19.5 115.79-2.6Q113.64-1.05 111.02-0.18 108.39 0.7 105.69 0.7L105.69 0.7Q99.24 0.7 96.04-3.68 92.84-8.05 92.84-17.3L92.84-17.3Q92.84-23.3 94.62-27.33 96.39-31.35 99.44-33.3 102.49-35.25 106.34-35.25L106.34-35.25ZM137.74-6.4Q137.74-5.1 138.09-4.48 138.44-3.85 139.24-3.45L139.24-3.45 137.99 0.65Q135.94 0.4 134.71-0.45 133.49-1.3 132.89-3.05L132.89-3.05Q130.59 0.75 126.44 0.75L126.44 0.75Q123.14 0.75 121.19-1.48 119.24-3.7 119.24-7.4L119.24-7.4Q119.24-11.7 121.91-13.95 124.59-16.2 129.69-16.2L129.69-16.2 131.74-16.2 131.74-18.05Q131.74-20.55 130.86-21.58 129.99-22.6 128.04-22.6L128.04-22.6Q125.69-22.6 122.19-21.3L122.19-21.3 120.79-25.3Q122.79-26.2 124.94-26.68 127.09-27.15 129.04-27.15L129.04-27.15Q137.74-27.15 137.74-18.35L137.74-18.35 137.74-6.4ZM128.09-3.7Q130.49-3.7 131.74-7L131.74-7 131.74-12.55 130.29-12.55Q127.74-12.55 126.56-11.4 125.39-10.25 125.39-7.85L125.39-7.85Q125.39-5.8 126.09-4.75 126.79-3.7 128.09-3.7L128.09-3.7ZM167.19-27.15Q169.84-27.15 171.44-25.1 173.04-23.05 173.04-19.6L173.04-19.6 173.04 0 166.99 0 166.99-18.95Q166.99-20.85 166.49-21.68 165.99-22.5 165.04-22.5L165.04-22.5Q163.09-22.5 161.29-18.8L161.29-18.8 161.29 0 155.29 0 155.29-18.95Q155.29-22.5 153.39-22.5L153.39-22.5Q151.34-22.5 149.59-18.8L149.59-18.8 149.59 0 143.54 0 143.54-26.45 148.89-26.45 149.29-23.05Q151.89-27.15 155.54-27.15L155.54-27.15Q157.39-27.15 158.74-26 160.09-24.85 160.79-22.75L160.79-22.75Q163.44-27.15 167.19-27.15L167.19-27.15ZM197.38-13.85Q197.38-13.4 197.23-11.3L197.23-11.3 183.58-11.3Q183.78-7.2 185.01-5.58 186.23-3.95 188.48-3.95L188.48-3.95Q190.03-3.95 191.28-4.48 192.53-5 193.98-6.15L193.98-6.15 196.53-2.65Q193.03 0.75 188.13 0.75L188.13 0.75Q182.93 0.75 180.16-2.85 177.38-6.45 177.38-13L177.38-13Q177.38-19.55 180.03-23.35 182.68-27.15 187.53-27.15L187.53-27.15Q192.18-27.15 194.78-23.78 197.38-20.4 197.38-13.85L197.38-13.85ZM191.38-15.3L191.38-15.65Q191.38-19.4 190.48-21.13 189.58-22.85 187.58-22.85L187.58-22.85Q185.73-22.85 184.76-21.18 183.78-19.5 183.58-15.3L183.58-15.3 191.38-15.3Z" opacity="1" transform="matrix(1,0,0,1,0,0)" fill="#000000" class="wordmark-text-0" data-fill-palette-color="primary" id="text-0"></path></svg></g></svg></g><g transform="matrix(1,0,0,1,0,101.22820175575578)"><svg viewBox="0 0 395.52 37.30054736842105" height="37.30054736842105" width="395.52"><g transform="matrix(1,0,0,1,0,0)"><svg width="395.52" viewBox="0.55 -37.45 403.46999999999997 38.050000000000004" height="37.30054736842105" data-palette-color="#89939e"><path d="M0.55-34.45L21.1-34.45 20.6-30.65 12.95-30.65 12.95 0 8.4 0 8.4-30.65 0.55-30.65 0.55-34.45ZM45.65-26.9Q48.5-26.9 50.2-24.85 51.9-22.8 51.9-19.35L51.9-19.35 51.9 0 47.5 0 47.5-18.75Q47.5-21.3 46.78-22.38 46.05-23.45 44.6-23.45L44.6-23.45Q41.75-23.45 39.3-18.55L39.3-18.55 39.3 0 34.9 0 34.9-36.9 39.3-37.35 39.3-22.65Q40.55-24.75 42.03-25.83 43.5-26.9 45.65-26.9L45.65-26.9ZM85.9-13.95Q85.9-12.85 85.8-11.65L85.8-11.65 72-11.65Q72.2-6.9 73.58-4.95 74.95-3 77.5-3L77.5-3Q79.15-3 80.45-3.53 81.75-4.05 83.15-5.2L83.15-5.2 85.1-2.55Q81.8 0.6 77.35 0.6L77.35 0.6Q72.65 0.6 70.05-2.88 67.45-6.35 67.45-12.9L67.45-12.9Q67.45-19.45 69.93-23.18 72.4-26.9 76.9-26.9L76.9-26.9Q81.25-26.9 83.58-23.63 85.9-20.35 85.9-13.95L85.9-13.95ZM81.65-14.9L81.65-15.25Q81.65-19.55 80.5-21.5 79.35-23.45 76.9-23.45L76.9-23.45Q74.7-23.45 73.45-21.48 72.2-19.5 72-14.9L72-14.9 81.65-14.9ZM128.46-34.45Q132.66-34.45 135.73-33.13 138.81-31.8 140.73-28.03 142.66-24.25 142.66-17.4L142.66-17.4Q142.66-7.65 138.86-3.83 135.06 0 129.21 0L129.21 0 122.01 0 122.01-34.45 128.46-34.45ZM129.31-30.8L126.56-30.8 126.56-3.6 129.51-3.6Q132.01-3.6 133.83-4.7 135.66-5.8 136.78-8.83 137.91-11.85 137.91-17.4L137.91-17.4Q137.91-23.05 136.73-25.98 135.56-28.9 133.73-29.85 131.91-30.8 129.31-30.8L129.31-30.8ZM175.06-26.35L175.06 0 171.26 0 170.96-3.7Q169.71-1.55 168.13-0.48 166.56 0.6 164.46 0.6L164.46 0.6Q161.61 0.6 159.91-1.35 158.21-3.3 158.21-6.45L158.21-6.45 158.21-26.35 162.61-26.35 162.61-6.9Q162.61-2.85 165.46-2.85L165.46-2.85Q167.11-2.85 168.36-4.03 169.61-5.2 170.66-7.3L170.66-7.3 170.66-26.35 175.06-26.35ZM200.66-26.9Q202.66-26.9 204.26-26.25 205.86-25.6 207.36-24.1L207.36-24.1 205.36-21.5Q204.21-22.45 203.13-22.9 202.06-23.35 200.81-23.35L200.81-23.35Q195.51-23.35 195.51-13.05L195.51-13.05Q195.51-7.7 196.86-5.4 198.21-3.1 200.76-3.1L200.76-3.1Q202.01-3.1 203.03-3.55 204.06-4 205.31-4.95L205.31-4.95 207.36-2.3Q204.36 0.6 200.71 0.6L200.71 0.6Q196.01 0.6 193.41-2.8 190.81-6.2 190.81-12.95L190.81-12.95Q190.81-19.55 193.46-23.23 196.11-26.9 200.66-26.9L200.66-26.9ZM221.61-36.95L226.01-37.45 226.01 0 221.61 0 221.61-36.95ZM234.21-26.35L238.71-26.35 230.81-14.65 239.51 0 234.61 0 226.26-14.4 234.21-26.35ZM284.51-35Q287.16-35 289.19-34.08 291.21-33.15 293.21-31.25L293.21-31.25 290.71-28.7Q289.11-30.1 287.74-30.7 286.36-31.3 284.51-31.3L284.51-31.3Q281.06-31.3 278.89-28.1 276.71-24.9 276.71-17.25L276.71-17.25Q276.71-11.9 277.54-8.83 278.36-5.75 279.99-4.45 281.61-3.15 284.11-3.15L284.11-3.15Q286.81-3.15 289.06-4.65L289.06-4.65 289.06-15.35 284.36-15.35 283.86-19.05 293.46-19.05 293.46-2.45Q289.06 0.6 284.06 0.6L284.06 0.6Q271.91 0.6 271.91-17.25L271.91-17.25Q271.91-23.1 273.61-27.1 275.31-31.1 278.16-33.05 281.01-35 284.51-35L284.51-35ZM324.76-5.6Q324.76-4.2 325.16-3.53 325.56-2.85 326.46-2.45L326.46-2.45 325.51 0.6Q323.66 0.3 322.59-0.58 321.51-1.45 321.06-3.2L321.06-3.2Q318.91 0.6 314.76 0.6L314.76 0.6Q311.51 0.6 309.59-1.58 307.66-3.75 307.66-7.35L307.66-7.35Q307.66-11.55 310.26-13.78 312.86-16 317.81-16L317.81-16 320.41-16 320.41-18.4Q320.41-21 319.39-22.2 318.36-23.4 316.21-23.4L316.21-23.4Q313.66-23.4 310.26-22.05L310.26-22.05 309.16-25.15Q313.21-26.9 316.76-26.9L316.76-26.9Q320.81-26.9 322.79-24.73 324.76-22.55 324.76-18.6L324.76-18.6 324.76-5.6ZM315.66-2.7Q318.76-2.7 320.41-6.9L320.41-6.9 320.41-13.05 318.31-13.05Q315.16-13.05 313.69-11.7 312.21-10.35 312.21-7.55L312.21-7.55Q312.21-5.15 313.11-3.93 314.01-2.7 315.66-2.7L315.66-2.7ZM364.17-26.9Q366.82-26.9 368.42-24.83 370.02-22.75 370.02-19.35L370.02-19.35 370.02 0 365.72 0 365.72-18.8Q365.72-21.3 365.04-22.4 364.37-23.5 363.07-23.5L363.07-23.5Q360.42-23.5 358.17-18.8L358.17-18.8 358.17 0 353.87 0 353.87-18.8Q353.87-23.5 351.22-23.5L351.22-23.5Q349.82-23.5 348.54-22.25 347.27-21 346.27-18.8L346.27-18.8 346.27 0 341.97 0 341.97-26.35 345.77-26.35 346.07-22.55Q348.57-26.9 352.32-26.9L352.32-26.9Q354.32-26.9 355.69-25.68 357.07-24.45 357.67-22.2L357.67-22.2Q360.37-26.9 364.17-26.9L364.17-26.9ZM404.02-13.95Q404.02-12.85 403.92-11.65L403.92-11.65 390.12-11.65Q390.32-6.9 391.69-4.95 393.07-3 395.62-3L395.62-3Q397.27-3 398.57-3.53 399.87-4.05 401.27-5.2L401.27-5.2 403.22-2.55Q399.92 0.6 395.47 0.6L395.47 0.6Q390.77 0.6 388.17-2.88 385.57-6.35 385.57-12.9L385.57-12.9Q385.57-19.45 388.04-23.18 390.52-26.9 395.02-26.9L395.02-26.9Q399.37-26.9 401.69-23.63 404.02-20.35 404.02-13.95L404.02-13.95ZM399.77-14.9L399.77-15.25Q399.77-19.55 398.62-21.5 397.47-23.45 395.02-23.45L395.02-23.45Q392.82-23.45 391.57-21.48 390.32-19.5 390.12-14.9L390.12-14.9 399.77-14.9Z" opacity="1" transform="matrix(1,0,0,1,0,0)" fill="#89939e" class="slogan-text-1" data-fill-palette-color="secondary" id="text-1"></path></svg></g></svg></g></svg></g></svg></g><g transform="matrix(1,0,0,1,126.96112582761454,0)"><svg viewBox="0 0 143.57534834477084 191.44673128961242" height="191.44673128961242" width="143.57534834477084"><g><svg xmlns="http://www.w3.org/2000/svg" viewBox="6.003040048489663 2 44.996959951510334 60" x="0" y="0" height="191.44673128961242" width="143.57534834477084" class="icon-icon-0" data-fill-palette-color="accent" id="icon-0"><g fill="#000000" data-fill-palette-color="accent"><path d="M49.211 43.814A17.03 17.03 0 0 0 51 36.236V30a1 1 0 0 0-1-1 8.188 8.188 0 0 0-5.828 2.414L43.586 32H26V7a5.006 5.006 0 0 0-5-5H16a4.007 4.007 0 0 0-3.906 3.137l-3.9 0.651A2.624 2.624 0 0 0 8.624 11H16V38a13.015 13.015 0 0 0 9.376 12.476L24.192 56H23a3 3 0 0 0-3 3v2a1 1 0 0 0 1 1H41a1 1 0 0 0 1-1V59a3 3 0 0 0-3-3h-0.763l1.1-5.118A12.917 12.917 0 0 0 49.211 43.814ZM36.676 34a4.992 4.992 0 0 1 4 2H31v2H41.613l1 3H26.5a3.5 3.5 0 0 1-2.485-5.964A3.475 3.475 0 0 1 26.5 34ZM8.624 9a0.624 0.624 0 0 1-0.1-1.24l4.643-0.774A1 1 0 0 0 14 6a2 2 0 0 1 2-2V9ZM18 38V4h3a3 3 0 0 1 3 3V32.627A5.484 5.484 0 0 0 26.5 43H44a1 1 0 0 0 0.948-1.316l-1.633-4.9A6.979 6.979 0 0 0 41.575 34H44a1 1 0 0 0 0.707-0.293l0.879-0.879A6.2 6.2 0 0 1 49 31.079v5.157a15.02 15.02 0 0 1-1.578 6.683A10.939 10.939 0 0 1 37.584 49H29A11.013 11.013 0 0 1 18 38ZM31 56a2.941 2.941 0 0 0-0.789 0.119L31.308 51h1.955l-1.071 5Zm-3.666-5.119A13.078 13.078 0 0 0 29 51h0.263l-1.072 5H26.237ZM22 59a1 1 0 0 1 1-1h5.184A2.966 2.966 0 0 0 28 59v1H22Zm18 0v1H30V59a1 1 0 0 1 1-1h8A1 1 0 0 1 40 59Zm-5.763-3l1.071-5h1.955l-1.072 5Z" fill="#000000" data-fill-palette-color="accent"></path><rect x="20" y="6" width="2" height="2" fill="#000000" data-fill-palette-color="accent"></rect></g></svg></g></svg></g><g></g></svg></g><defs></defs></svg><rect width="282.10029512742557" height="247.2" fill="none" stroke="none" visibility="hidden"></rect></g></svg></g></svg>